<?xml version="1.0" standalone="no"?>
<!DOCTYPE svg PUBLIC "-//W3C//DTD SVG 20010904//EN"
 "http://www.w3.org/TR/2001/REC-SVG-20010904/DTD/svg10.dtd">
<svg version="1.0" xmlns="http://www.w3.org/2000/svg"
 width="498.000000pt" height="640.000000pt" viewBox="0 0 498.000000 640.000000"
 preserveAspectRatio="xMidYMid meet">

<g transform="translate(0.000000,640.000000) scale(0.100000,-0.100000)"
fill="rgb(0, 77, 136)" stroke="none">
<path d="M2360 6385 c-86 -19 -213 -83 -277 -140 -70 -61 -144 -175 -174 -266
-20 -62 -24 -94 -24 -194 0 -100 4 -132 24 -194 32 -97 108 -209 184 -273 56
-47 165 -107 217 -121 20 -5 21 -11 18 -124 l-3 -118 -437 -3 -438 -2 0 -140
0 -140 434 0 c239 0 437 -3 439 -7 6 -11 -99 -3802 -105 -3808 -14 -14 -463
89 -646 148 -186 61 -212 72 -377 168 -125 72 -226 141 -342 232 l-165 130
113 113 c62 62 111 115 109 117 -46 40 -903 717 -905 715 -1 -2 44 -320 101
-708 57 -388 104 -707 104 -709 0 -4 51 43 231 216 l76 73 114 -106 c227 -211
426 -367 614 -480 167 -100 187 -109 379 -174 123 -41 281 -84 399 -110 190
-41 196 -43 201 -69 3 -14 13 -113 22 -218 l18 -193 206 0 206 0 18 188 c10
103 20 196 23 207 4 19 25 25 176 53 112 22 242 56 372 97 178 58 220 76 384
165 149 82 218 127 355 235 94 73 236 194 316 269 l145 136 152 -152 c84 -84
153 -151 154 -148 6 26 206 1426 204 1428 -3 4 -924 -732 -924 -738 1 -3 54
-54 120 -113 65 -60 119 -112 119 -115 -1 -18 -446 -302 -596 -381 -146 -77
-201 -100 -375 -155 -194 -61 -585 -154 -597 -142 -6 7 -69 3826 -63 3832 2 2
199 4 438 4 l433 0 0 140 c0 77 -1 140 -2 141 -2 1 -203 6 -448 13 l-445 11
-3 106 -3 106 62 21 c177 61 322 207 380 384 35 106 35 281 0 387 -61 186
-219 338 -411 395 -79 24 -221 29 -300 11z m217 -320 c66 -20 148 -93 179
-160 33 -70 33 -171 0 -240 -26 -57 -96 -126 -153 -151 -51 -23 -175 -23 -226
0 -57 25 -127 94 -153 151 -18 37 -24 68 -24 120 0 91 29 154 100 218 80 72
173 93 277 62z"/>
</g>
</svg>
